<svg width="281" height="157" viewBox="0 0 281 157" fill="none" xmlns="http://www.w3.org/2000/svg">
	<path d="M266.615 0.532654H14.3513C6.62801 0.532654 0.36705 6.79362 0.36705 14.5169V142.616C0.36705 150.34 6.62801 156.601 14.3513 156.601H266.615C274.338 156.601 280.599 150.34 280.599 142.616V14.5169C280.599 6.79362 274.338 0.532654 266.615 0.532654Z" fill="#007CC4" />
	<path fill-rule="evenodd" clip-rule="evenodd" d="M217.713 94.1768C227.779 94.3273 231.289 87.9905 232.459 79.6752C233.629 71.3602 231.93 64.861 221.787 64.861C211.643 64.861 208.236 71.3602 207.066 79.6752C205.896 87.9905 207.646 94.0264 217.713 94.1768ZM218.64 90.1328C223.429 90.2371 225.878 85.4499 226.498 79.6752C227.119 73.9008 225.735 69.218 220.888 69.218C216.04 69.218 213.65 73.9008 213.029 79.6752C212.409 85.4499 213.852 90.0281 218.64 90.1328Z" fill="white" />
	<path fill-rule="evenodd" clip-rule="evenodd" d="M89.8398 64.8606L66.9623 64.8621L64.1466 94.1769H70.2921L72.6498 69.6304H83.2362L80.8786 94.1769H87.0422L89.8398 64.8606Z" fill="white" />
	<path fill-rule="evenodd" clip-rule="evenodd" d="M96.92 64.8621H116.405L115.903 69.4633H102.624L101.903 76.9665H114.652L114.108 81.5223H101.466L100.672 89.7923H114.066L113.714 94.1769H94.1046L96.92 64.8621Z" fill="white" />
	<path fill-rule="evenodd" clip-rule="evenodd" d="M119.72 94.1769L122.536 64.8621H128.681L127.519 76.9665H138.472L139.634 64.8621H145.78L142.964 94.1769H136.819L138.034 81.5223H127.081L125.866 94.1769H119.72Z" fill="white" />
	<path fill-rule="evenodd" clip-rule="evenodd" d="M182.649 64.861L179.833 94.1768H185.978L187.307 80.3461L195.459 94.1768H203.404L193.484 78.8388L205.735 64.861H198.304L187.532 78.0009L188.795 64.861H182.649Z" fill="white" />
	<path fill-rule="evenodd" clip-rule="evenodd" d="M236.199 94.1768L239.002 64.861H247.936L250.79 79.0062L256.842 64.861H265.311L262.535 94.1768H256.39L258.329 73.9874L252.965 86.5354H247.609L244.293 73.9057L242.337 94.1768H236.199Z" fill="white" />
	<path fill-rule="evenodd" clip-rule="evenodd" d="M160.634 94.1768C170.701 94.3273 174.173 87.6617 175.343 79.3467C176.512 71.0314 174.458 64.861 164.314 64.861C154.171 64.861 151.12 71.0314 149.95 79.3467C148.78 87.6617 150.567 94.0264 160.634 94.1768ZM161.524 89.804C166.313 89.9083 168.762 85.1211 169.382 79.3467C170.003 73.572 168.619 68.8892 163.772 68.8892C158.924 68.8892 156.534 73.572 155.913 79.3467C155.293 85.1211 156.736 89.6993 161.524 89.804Z" fill="white" />
	<path fill-rule="evenodd" clip-rule="evenodd" d="M71.2668 24.9983C90.581 25.6688 107.057 36.7673 115.907 52.6523L107.896 57.1318C100.593 44.0074 86.2833 34.9687 70.3462 34.3556L71.2668 24.9983ZM51.8522 37.8317C35.5299 44.8363 24.855 60.7621 24.8334 78.589C24.8236 86.7441 27.021 94.3866 30.858 100.955L22.7691 105.307C18.2348 97.4386 15.6443 88.3103 15.656 78.578C15.6825 56.5997 28.8991 37.4189 49.0689 29.0511L51.8522 37.8317ZM38.9802 111.096C46.8783 118.443 54.3021 122.941 69.0951 122.958C81.6492 122.972 92.7342 117.724 101.025 109.218L101.339 108.896L107.918 115.493C107.996 115.571 107.765 115.653 107.688 115.733C97.9416 125.858 84.245 132.153 69.0842 132.135C54.9616 132.118 42.1244 126.624 32.5735 117.669L38.9802 111.096Z" fill="#FAEC37" />
	<path fill-rule="evenodd" clip-rule="evenodd" d="M65.5798 45.6765C74.9583 44.571 83.8954 47.395 90.7454 52.8458L84.6876 58.4618C79.6196 54.8097 73.2235 52.9694 66.5322 53.7582C52.3378 55.4314 42.1837 68.2992 43.8569 82.494C45.5301 96.6888 58.3979 106.843 72.5927 105.169C73.163 105.102 73.7265 105.017 74.2829 104.913C74.3955 104.893 74.5649 104.784 74.6083 104.878L78.0923 112.4C76.6171 112.78 75.1 113.068 73.5451 113.251C54.8882 115.45 37.9745 102.104 35.7752 83.4468C33.5759 64.7895 46.9225 47.8758 65.5798 45.6765Z" fill="#FAEC37" />
	<path d="M119.74 101.356H122.564C123.664 101.356 124.481 101.513 125.013 101.829C125.548 102.146 125.815 102.637 125.815 103.304C125.815 103.743 125.698 104.12 125.465 104.428C125.233 104.74 124.927 104.94 124.547 105.03V105.083C125.048 105.211 125.412 105.425 125.637 105.725C125.862 106.024 125.975 106.414 125.975 106.893C125.975 107.604 125.7 108.163 125.148 108.572C124.596 108.98 123.843 109.185 122.891 109.185H119.74V101.356ZM121.927 104.359H122.587C122.9 104.359 123.142 104.297 123.314 104.173C123.486 104.046 123.571 103.862 123.571 103.616C123.571 103.176 123.229 102.957 122.541 102.957H121.927V104.359ZM121.927 105.907V107.551H122.696C123.38 107.551 123.721 107.273 123.721 106.715C123.721 106.456 123.63 106.255 123.446 106.116C123.265 105.977 123.001 105.907 122.653 105.907H121.927ZM127.382 101.356H129.331V104.719C129.331 105.076 129.302 105.791 129.242 106.861H129.287L132.516 101.356H135.216V109.185H133.279V105.907C133.279 105.412 133.313 104.668 133.379 103.679H133.334L130.079 109.185H127.382V101.356ZM142.84 103.845C142.84 104.721 142.574 105.395 142.041 105.873C141.508 106.35 140.75 106.587 139.767 106.587H139.154V109.185H136.966V101.356H139.767C140.79 101.356 141.559 101.572 142.071 102.003C142.585 102.436 142.84 103.05 142.84 103.845ZM139.154 104.863H139.552C139.881 104.863 140.141 104.774 140.336 104.595C140.529 104.418 140.625 104.171 140.625 103.857C140.625 103.328 140.323 103.063 139.718 103.063H139.154V104.863ZM151.707 105.26C151.707 106.576 151.372 107.578 150.703 108.264C150.036 108.949 149.057 109.292 147.769 109.292C146.5 109.292 145.526 108.947 144.848 108.258C144.171 107.569 143.833 106.565 143.833 105.249C143.833 103.946 144.169 102.95 144.842 102.262C145.517 101.575 146.496 101.232 147.781 101.232C149.068 101.232 150.045 101.573 150.708 102.255C151.374 102.937 151.707 103.939 151.707 105.26ZM146.135 105.26C146.135 106.774 146.681 107.53 147.769 107.53C148.323 107.53 148.734 107.346 149.002 106.979C149.268 106.611 149.403 106.037 149.403 105.26C149.403 104.478 149.267 103.9 148.996 103.528C148.724 103.154 148.32 102.968 147.781 102.968C146.683 102.968 146.135 103.732 146.135 105.26ZM159.153 106.64C159.153 107.463 158.862 108.092 158.28 108.528C157.7 108.965 156.861 109.185 155.765 109.185H153.168V101.356H158.494V103.054H155.366V104.248H155.681C156.815 104.248 157.677 104.447 158.267 104.843C158.859 105.242 159.153 105.842 159.153 106.64ZM155.366 107.551H155.659C156.116 107.551 156.445 107.477 156.646 107.331C156.844 107.185 156.944 106.969 156.944 106.684C156.944 106.399 156.838 106.187 156.624 106.052C156.413 105.916 156.088 105.849 155.647 105.849H155.366V107.551ZM167.443 109.185H165.245V105.993H162.703V109.185H160.505V101.356H162.703V104.258H165.245V101.356H167.443V109.185ZM169.193 101.356H171.142V104.719C171.142 105.076 171.114 105.791 171.053 106.861H171.099L174.327 101.356H177.027V109.185H175.09V105.907C175.09 105.412 175.124 104.668 175.19 103.679H175.145L171.89 109.185H169.193V101.356ZM185.638 109.185H183.435V106.287C182.501 106.602 181.666 106.759 180.932 106.759C180.163 106.759 179.564 106.576 179.135 106.211C178.704 105.843 178.49 105.33 178.49 104.664V101.356H180.694V103.964C180.694 104.346 180.773 104.619 180.932 104.783C181.091 104.947 181.343 105.03 181.69 105.03C182.163 105.03 182.745 104.907 183.435 104.664V101.356H185.638V109.185ZM192.349 109.185L191.951 107.717H189.32L188.91 109.185H186.508L189.148 101.323H192.067L194.74 109.185H192.349ZM191.497 105.982L191.147 104.697C191.066 104.412 190.968 104.043 190.851 103.588C190.736 103.134 190.658 102.811 190.622 102.613C190.588 102.796 190.524 103.096 190.426 103.513C190.328 103.931 190.11 104.754 189.775 105.982H191.497ZM205.638 109.185H203.163L200.76 105.216V109.185H198.562V101.356H200.76V105.147L203.075 101.356H205.477L202.981 105.094L205.638 109.185ZM213.812 105.26C213.812 106.576 213.478 107.578 212.809 108.264C212.142 108.949 211.163 109.292 209.876 109.292C208.606 109.292 207.632 108.947 206.953 108.258C206.277 107.569 205.939 106.565 205.939 105.249C205.939 103.946 206.275 102.95 206.948 102.262C207.623 101.575 208.602 101.232 209.887 101.232C211.174 101.232 212.151 101.573 212.815 102.255C213.48 102.937 213.812 103.939 213.812 105.26ZM208.241 105.26C208.241 106.774 208.787 107.53 209.876 107.53C210.429 107.53 210.84 107.346 211.108 106.979C211.375 106.611 211.508 106.037 211.508 105.26C211.508 104.478 211.373 103.9 211.103 103.528C210.83 103.154 210.426 102.968 209.887 102.968C208.789 102.968 208.241 103.732 208.241 105.26ZM218.8 109.185L217.145 103.546H217.096C217.173 104.505 217.211 105.253 217.211 105.785V109.185H215.274V101.356H218.186L219.874 106.915H219.92L221.575 101.356H224.493V109.185H222.483V105.752C222.483 105.573 222.486 105.375 222.492 105.158C222.497 104.94 222.522 104.407 222.565 103.557H222.516L220.884 109.185H218.8ZM232.872 109.185H230.668V103.085H228.436V109.185H226.238V101.356H232.872V109.185ZM239.583 109.185L239.184 107.717H236.554L236.144 109.185H233.742L236.382 101.323H239.3L241.974 109.185H239.583ZM238.731 105.982L238.381 104.697C238.3 104.412 238.202 104.043 238.084 103.588C237.969 103.134 237.892 102.811 237.856 102.613C237.822 102.796 237.758 103.096 237.66 103.513C237.561 103.931 237.344 104.754 237.009 105.982H238.731ZM249.787 109.185H247.589V105.993H245.047V109.185H242.849V101.356H245.047V104.258H247.589V101.356H249.787V109.185ZM251.537 109.185V101.356H253.736V109.185H251.537ZM258.582 106.335L256.981 109.185H254.499L256.72 105.763C256.31 105.542 255.996 105.249 255.779 104.887C255.562 104.525 255.452 104.12 255.452 103.668C255.452 102.127 256.552 101.356 258.751 101.356H261.438V109.185H259.251V106.335H258.582ZM259.251 102.957H258.786C258.434 102.957 258.16 103.025 257.96 103.16C257.761 103.295 257.661 103.498 257.661 103.765C257.661 104.09 257.758 104.335 257.947 104.5C258.138 104.662 258.434 104.744 258.841 104.744H259.251V102.957Z" fill="#FAEC37" />
</svg>
